<svg width="41" height="40" viewBox="0 0 41 40" fill="none" xmlns="http://www.w3.org/2000/svg">
<path d="M28 20H35.5C35.8315 20 36.1495 20.1317 36.3839 20.3661C36.6183 20.6005 36.75 20.9185 36.75 21.25V31.25C36.75 31.5815 36.6183 31.8995 36.3839 32.1339C36.1495 32.3683 35.8315 32.5 35.5 32.5H5.5C5.16848 32.5 4.85054 32.3683 4.61612 32.1339C4.3817 31.8995 4.25 31.5815 4.25 31.25V21.25C4.25 20.9185 4.3817 20.6005 4.61612 20.3661C4.85054 20.1317 5.16848 20 5.5 20H13" stroke="#3366FF" stroke-linecap="round" stroke-linejoin="round"/>
<path d="M20.5 3.75V20" stroke="#3366FF" stroke-linecap="round" stroke-linejoin="round"/>
<path d="M13 12.5L20.5 20L28 12.5" stroke="#3366FF" stroke-linecap="round" stroke-linejoin="round"/>
<path d="M29.875 28.125C30.9105 28.125 31.75 27.2855 31.75 26.25C31.75 25.2145 30.9105 24.375 29.875 24.375C28.8395 24.375 28 25.2145 28 26.25C28 27.2855 28.8395 28.125 29.875 28.125Z" fill="#3366FF"/>
</svg>
